<?xml version="1.0" encoding="UTF-8"?>
<svg version="1.1" xmlns="http://www.w3.org/2000/svg" width="320" height="320">
<path d="M0 0 C0.66 0 1.32 0 2 0 C4.0281327 3.50036388 6.05440163 7.00179974 8.07910156 10.50415039 C8.76513928 11.69030384 9.45164668 12.8761858 10.13867188 14.06176758 C11.80033994 16.9296026 13.45177833 19.80201903 15.08398438 22.68676758 C16.32359498 24.83033989 17.61414268 26.94558113 18.96289062 29.0222168 C23.14742361 35.71665861 23.14742361 35.71665861 22.75244141 39.1550293 C21.79856788 41.38298603 20.64278377 43.20437688 19.25 45.1875 C18.26901808 46.75358492 17.28857806 48.32000937 16.30859375 49.88671875 C15.50010986 51.12494385 15.50010986 51.12494385 14.67529297 52.38818359 C12.37273013 55.97792672 10.25158103 59.66248439 8.1255188 63.35868835 C6.40915575 66.33253023 4.67773559 69.29690002 2.94042969 72.25854492 C-1.05461665 79.08267003 -5.00930279 85.92967177 -8.95703125 92.78125 C-9.64632606 93.97690892 -10.33565697 95.17254702 -11.02502441 96.36816406 C-12.68370214 99.24523975 -14.34202252 102.12252074 -16 105 C-14.54992554 104.92552643 -14.54992554 104.92552643 -13.07055664 104.84954834 C-3.89414405 104.39708284 5.27676497 104.09708218 14.46311951 103.94041061 C19.18640868 103.85510421 23.89605745 103.71914299 28.61328125 103.46044922 C58.34330209 101.88103065 58.34330209 101.88103065 65.72692871 107.25747681 C72.35026797 113.62604214 75.78697158 122.34903467 78.83056641 130.84143066 C80.19683861 134.53164916 81.97773424 137.64116548 84 141 C84 141.66 84 142.32 84 143 C29.55 143 -24.9 143 -81 143 C-80.17692643 138.88463213 -79.79450396 137.25109426 -77.70703125 133.9609375 C-77.00803711 132.84138672 -77.00803711 132.84138672 -76.29492188 131.69921875 C-75.56112305 130.54873047 -75.56112305 130.54873047 -74.8125 129.375 C-71.18720588 123.63619422 -67.78079716 117.84272565 -64.56079102 111.86621094 C-61.82178827 106.83635137 -58.93466223 101.8921323 -56.0625 96.9375 C-55.069933 95.22118622 -54.07736813 93.50487121 -53.08493042 91.78848267 C-52.06369492 90.02265557 -51.04189741 88.25715463 -50.02001953 86.49169922 C-46.84080011 80.99786018 -43.67097071 75.49860258 -40.5 70 C-39.25004232 67.83330892 -38.00004222 65.66664231 -36.75 63.5 C-35.821875 61.89125 -35.821875 61.89125 -34.875 60.25 C-33 57 -31.125 53.75 -29.25 50.5 C-28.6302832 49.42580811 -28.01056641 48.35161621 -27.37207031 47.24487305 C-26.13189239 45.09526366 -24.89165873 42.94568642 -23.65136719 40.79614258 C-20.7264977 35.72690788 -17.80219167 30.65735064 -14.87988281 25.5866394 C-13.50193062 23.19573403 -12.12365828 20.80501328 -10.74536133 18.41430664 C-9.77459018 16.73016037 -8.80428126 15.04574769 -7.83398438 13.36132812 C-7.24423828 12.33845703 -6.65449219 11.31558594 -6.046875 10.26171875 C-5.52963867 9.36412842 -5.01240234 8.46653809 -4.47949219 7.54174805 C-3.99125977 6.70297119 -3.50302734 5.86419434 -3 5 C-2.4834082 4.06647705 -1.96681641 3.1329541 -1.43457031 2.17114258 C-0.96116211 1.45466553 -0.48775391 0.73818848 0 0 Z " fill="#FFBA00" transform="translate(97,124)"/>
<path d="M0 0 C5.83442903 -0.32281905 11.66361512 -0.5578377 17.50488281 -0.71411133 C19.48822571 -0.77926353 21.47094928 -0.86782452 23.45214844 -0.98071289 C39.82528153 -1.8898743 39.82528153 -1.8898743 44.86303711 2.48803711 C46.97854255 5.89985227 48.49182038 9.28276342 50 13 C51.21981063 15.17809411 52.47122098 17.33879874 53.75390625 19.48046875 C55.02544119 21.71500685 56.29490766 23.95072302 57.5625 26.1875 C58.96636027 28.65556753 60.3719422 31.12265364 61.77734375 33.58984375 C62.13006348 34.20953033 62.4827832 34.82921692 62.84619141 35.46768188 C66.41793187 41.74067406 70.01705151 47.9977665 73.625 54.25 C74.24262207 55.32032471 74.86024414 56.39064941 75.49658203 57.4934082 C79.62166722 64.63347882 83.77450926 71.75698182 87.9375 78.875 C93.35911495 88.14505515 98.70204857 97.4583165 104.01922607 106.78845215 C109.22045129 115.9128284 114.48027878 125.00132774 119.78344727 134.06689453 C124.02617273 141.32211726 128.23998054 148.59353319 132.4375 155.875 C133.05657227 156.94886963 133.67564453 158.02273926 134.31347656 159.12915039 C136.86322796 163.55350496 139.41182081 167.97852587 141.95996094 172.40380859 C143.2679191 174.67506465 144.57618488 176.94614359 145.88476562 179.21704102 C147.15504341 181.42152638 148.4245925 183.62643181 149.69335938 185.83178711 C152.48465779 190.67597083 155.29078537 195.50859507 158.1640625 200.3046875 C158.63739014 201.09673584 159.11071777 201.88878418 159.59838867 202.70483398 C160.46242158 204.14541391 161.33198539 205.58269773 162.20825195 207.01586914 C165 211.66998719 165 211.66998719 165 215 C159.30799972 215.32288804 153.62137771 215.55786199 147.92236328 215.71411133 C145.98749955 215.77925336 144.05327034 215.86780751 142.12060547 215.98071289 C126.15296403 216.88974142 126.15296403 216.88974142 121.17041016 212.51635742 C119.05414312 209.10401202 117.52446045 205.7117618 116 202 C114.76739998 199.79909098 113.50424866 197.61500949 112.2109375 195.44921875 C110.93040618 193.19638318 109.65181782 190.94244231 108.375 188.6875 C106.96780165 186.21129555 105.55845344 183.7363197 104.1484375 181.26171875 C103.79755066 180.64569794 103.44666382 180.02967712 103.08514404 179.39498901 C99.76448147 173.57259607 96.38836939 167.78322638 93 162 C87.94345419 153.36516449 82.95392739 144.69393437 78 136 C72.46014067 126.27875494 66.86625068 116.59105132 61.21655273 106.93310547 C55.06233258 96.40915375 48.97630004 85.84619863 42.89111328 75.28222656 C39.76319852 69.85340059 36.63142753 64.42680025 33.5 59 C29.70260037 52.41827123 25.90551907 45.83635928 22.109375 39.25390625 C21.4687915 38.14329834 20.82820801 37.03269043 20.16821289 35.88842773 C18.90413059 33.69667602 17.6402901 31.50478483 16.37670898 29.31274414 C13.4647286 24.26301115 10.54712017 19.2167572 7.61328125 14.1796875 C7.09540039 13.28950928 6.57751953 12.39933105 6.04394531 11.48217773 C5.08031771 9.82695518 4.11491699 8.17276319 3.14746094 6.51977539 C0 1.11106124 0 1.11106124 0 0 Z " fill="#FFA700" transform="translate(139,52)"/>
<path d="M0 0 C3.8339058 1.2779686 4.10636815 2.47450668 6.00390625 5.96875 C6.57423584 7.00572021 7.14456543 8.04269043 7.73217773 9.11108398 C8.33618408 10.22942627 8.94019043 11.34776855 9.5625 12.5 C10.83454357 14.81456871 12.10798382 17.12837037 13.3828125 19.44140625 C14.00446289 20.57336426 14.62611328 21.70532227 15.26660156 22.87158203 C17.4250432 26.76711317 19.6586966 30.61149881 21.9375 34.4375 C26.07428718 41.40703097 30.14122082 48.41502773 34.1875 55.4375 C34.82550537 56.54472412 35.46351074 57.65194824 36.12084961 58.79272461 C37.42889477 61.06337068 38.73675448 63.33412358 40.04443359 65.60498047 C43.19332054 71.0716998 46.34683264 76.53574887 49.5 82 C50.7500235 84.16665311 52.00002347 86.33331979 53.25 88.5 C53.86875 89.5725 54.4875 90.645 55.125 91.75 C60.75 101.5 60.75 101.5 62.62524414 104.75048828 C63.87435518 106.91557071 65.12354129 109.08060982 66.37280273 111.24560547 C69.51202309 116.68615706 72.64990563 122.12747216 75.78515625 127.5703125 C81.85363616 138.10259229 87.93562014 148.6265643 94.0625 159.125 C94.90784302 160.57362427 94.90784302 160.57362427 95.77026367 162.05151367 C98.83745744 167.30449349 101.91074838 172.55385217 104.98828125 177.80078125 C105.63853271 178.91114746 106.28878418 180.02151367 106.95874023 181.16552734 C108.21552638 183.31146288 109.47409197 185.45635747 110.73461914 187.60009766 C111.2939917 188.55577637 111.85336426 189.51145508 112.4296875 190.49609375 C112.92710449 191.34357178 113.42452148 192.1910498 113.93701172 193.06420898 C115 195 115 195 115 196 C109.12867095 196.22300529 103.25981949 196.3860246 97.38525391 196.49438477 C95.38872331 196.53956174 93.39248914 196.60092086 91.39697266 196.67895508 C74.96221528 197.30539202 74.96221528 197.30539202 70.5625 194.37841797 C68.93055116 191.9871596 67.99872934 189.71482503 67 187 C65.92613743 185.06916088 64.82555764 183.15301484 63.703125 181.25 C62.54896233 179.16839407 61.39803245 177.08499309 60.25 175 C56.25824176 167.81107379 52.26001356 160.63363437 48.0625 153.5625 C43.92682031 146.59230165 39.85878933 139.58498988 35.8125 132.5625 C35.17449463 131.45527588 34.53648926 130.34805176 33.87915039 129.20727539 C32.57110523 126.93662932 31.26324552 124.66587642 29.95556641 122.39501953 C26.80667946 116.9283002 23.65316736 111.46425113 20.5 106 C19.2499765 103.83334689 17.99997653 101.66668021 16.75 99.5 C16.13125 98.4275 15.5125 97.355 14.875 96.25 C9.25 86.5 9.25 86.5 7.37207031 83.24487305 C6.13189239 81.09526366 4.89165873 78.94568642 3.65136719 76.79614258 C0.7264977 71.72690788 -2.19780833 66.65735064 -5.12011719 61.5866394 C-6.49806938 59.19573403 -7.87634172 56.80501328 -9.25463867 54.41430664 C-10.22540982 52.73016037 -11.19571874 51.04574769 -12.16601562 49.36132812 C-13.05063477 47.82702148 -13.05063477 47.82702148 -13.953125 46.26171875 C-14.47036133 45.36412842 -14.98759766 44.46653809 -15.52050781 43.54174805 C-16.96439795 40.95437211 -16.96439795 40.95437211 -18.81542969 38.54614258 C-20 36 -20 36 -19.38232422 33.0390625 C-18.01785878 30.03926283 -16.55385168 27.21532648 -14.8828125 24.375 C-14.27566406 23.33859375 -13.66851562 22.3021875 -13.04296875 21.234375 C-12.09357422 19.63335937 -12.09357422 19.63335937 -11.125 18 C-10.49980469 16.93265625 -9.87460938 15.8653125 -9.23046875 14.765625 C-6.28020638 9.75080271 -3.30802982 4.78750045 0 0 Z " fill="#FFAD00" transform="translate(128,71)"/>
</svg>
